# Blender v2.78 (sub 0) OBJ File: 'whiteKnight.blend'
# www.blender.org
mtllib whiteKnight.mtl
o Cone_Cone.001
v -0.000540 0.017811 -1.011123
v 0.194551 0.017811 -0.991908
v 0.382144 0.017811 -0.935002
v 0.555030 0.017811 -0.842592
v 0.706567 0.017811 -0.718229
v 0.830930 0.017811 -0.566693
v 0.923340 0.017811 -0.393806
v 0.980245 0.017811 -0.206213
v 0.999460 0.017811 -0.011123
v -0.000540 0.311221 -1.011123
v 0.980246 0.017811 0.183968
v 0.923340 0.017811 0.371561
v 0.830930 0.017811 0.544447
v 0.706567 0.017811 0.695984
v 0.555030 0.017811 0.820347
v 0.382143 0.017811 0.912757
v 0.194550 0.017811 0.969663
v -0.000540 0.017811 0.988877
v -0.195631 0.017811 0.969662
v -0.383224 0.017811 0.912757
v -0.556110 0.017811 0.820346
v -0.707647 0.017811 0.695983
v -0.832010 0.017811 0.544447
v -0.924420 0.017811 0.371560
v -0.981325 0.017811 0.183967
v -1.000540 0.017811 -0.011124
v -0.981325 0.017811 -0.206214
v -0.924419 0.017811 -0.393807
v -0.832009 0.017811 -0.566694
v -0.707646 0.017811 -0.718230
v -0.556109 0.017811 -0.842593
v -0.383222 0.017811 -0.935003
v -0.195629 0.017811 -0.991908
v 0.194551 0.311221 -0.991908
v 0.382144 0.311221 -0.935002
v 0.555030 0.311221 -0.842592
v 0.706567 0.311221 -0.718229
v 0.830930 0.311221 -0.566693
v 0.923340 0.311221 -0.393806
v 0.980245 0.311221 -0.206213
v 0.999460 0.311221 -0.011123
v 0.980246 0.311221 0.183968
v 0.923340 0.311221 0.371561
v 0.830930 0.311221 0.544447
v 0.706567 0.311221 0.695984
v 0.555030 0.311221 0.820347
v 0.382143 0.311221 0.912757
v 0.194550 0.311221 0.969663
v -0.000540 0.311221 0.988877
v -0.195631 0.311221 0.969662
v -0.383224 0.311221 0.912757
v -0.556110 0.311221 0.820346
v -0.707647 0.311221 0.695983
v -0.832010 0.311221 0.544447
v -0.924420 0.311221 0.371560
v -0.981325 0.311221 0.183967
v -1.000540 0.311221 -0.011124
v -0.981325 0.311221 -0.206214
v -0.924419 0.311221 -0.393807
v -0.832009 0.311221 -0.566694
v -0.707646 0.311221 -0.718230
v -0.556109 0.311221 -0.842593
v -0.383222 0.311221 -0.935003
v -0.195629 0.311221 -0.991908
v -0.000540 0.496956 -0.919213
v 0.176620 0.496956 -0.901764
v 0.346972 0.496956 -0.850089
v 0.503968 0.496956 -0.766172
v 0.641577 0.496956 -0.653240
v 0.754510 0.496956 -0.515631
v 0.838426 0.496956 -0.358634
v 0.890102 0.496956 -0.188282
v 0.907551 0.496956 -0.011123
v 0.890102 0.496956 0.166037
v 0.838427 0.496956 0.336388
v 0.754510 0.496956 0.493385
v 0.641577 0.496956 0.630994
v 0.503968 0.496956 0.743927
v 0.346971 0.496956 0.827844
v 0.176620 0.496956 0.879519
v -0.000540 0.496956 0.896968
v -0.177700 0.496956 0.879519
v -0.348051 0.496956 0.827843
v -0.505048 0.496956 0.743927
v -0.642657 0.496956 0.630993
v -0.755590 0.496956 0.493385
v -0.839506 0.496956 0.336388
v -0.891182 0.496956 0.166036
v -0.908630 0.496956 -0.011124
v -0.891181 0.496956 -0.188283
v -0.839506 0.496956 -0.358634
v -0.755589 0.496956 -0.515632
v -0.642656 0.496956 -0.653241
v -0.505047 0.496956 -0.766173
v -0.348050 0.496956 -0.850090
v -0.177698 0.496956 -0.901764
v -0.000540 0.698169 -1.000487
v 0.192476 0.698169 -0.981477
v 0.378074 0.698169 -0.925177
v 0.549122 0.698169 -0.833749
v 0.699047 0.698169 -0.710709
v 0.822087 0.698169 -0.560784
v 0.913514 0.698169 -0.389736
v 0.969815 0.698169 -0.204138
v 0.988825 0.698169 -0.011123
v 0.969815 0.698169 0.181893
v 0.913514 0.698169 0.367490
v 0.822087 0.698169 0.538539
v 0.699047 0.698169 0.688464
v 0.549122 0.698169 0.811504
v 0.378073 0.698169 0.902931
v 0.192475 0.698169 0.959231
v -0.000540 0.698169 0.978242
v -0.193556 0.698169 0.959231
v -0.379153 0.698169 0.902931
v -0.550202 0.698169 0.811503
v -0.700127 0.698169 0.688463
v -0.823167 0.698169 0.538538
v -0.914594 0.698169 0.367490
v -0.970894 0.698169 0.181891
v -0.989905 0.698169 -0.011124
v -0.970894 0.698169 -0.204139
v -0.914593 0.698169 -0.389737
v -0.823166 0.698169 -0.560785
v -0.700125 0.698169 -0.710710
v -0.550200 0.698169 -0.833750
v -0.379152 0.698169 -0.925177
v -0.193554 0.698169 -0.981477
v -0.000540 0.991579 -0.807828
v 0.154890 0.991579 -0.792520
v 0.304346 0.991579 -0.747183
v 0.442086 0.991579 -0.673559
v 0.562816 0.991579 -0.574479
v 0.661897 0.991579 -0.453749
v 0.735520 0.991579 -0.316009
v 0.780857 0.991579 -0.166552
v 0.796166 0.991579 -0.011123
v 0.780857 0.991579 0.144307
v 0.735520 0.991579 0.293763
v 0.661897 0.991579 0.431503
v 0.562816 0.991579 0.552233
v 0.442086 0.991579 0.651314
v 0.304346 0.991579 0.724937
v 0.154889 0.991579 0.770274
v -0.000540 0.991579 0.785583
v -0.155970 0.991579 0.770274
v -0.305426 0.991579 0.724937
v -0.443166 0.991579 0.651313
v -0.563896 0.991579 0.552232
v -0.662977 0.991579 0.431503
v -0.736600 0.991579 0.293763
v -0.781937 0.991579 0.144306
v -0.797245 0.991579 -0.011124
v -0.781937 0.991579 -0.166553
v -0.736599 0.991579 -0.316009
v -0.662976 0.991579 -0.453749
v -0.563895 0.991579 -0.574479
v -0.443165 0.991579 -0.673560
v -0.305425 0.991579 -0.747183
v -0.155968 0.991579 -0.792520
v -0.000540 1.119155 -0.807828
v 0.154890 1.119155 -0.792520
v 0.304346 1.119155 -0.747183
v 0.442086 1.119155 -0.673559
v 0.562816 1.119155 -0.574479
v 0.661897 1.119155 -0.453749
v 0.735520 1.119155 -0.316009
v 0.780857 1.119155 -0.166552
v 0.796166 1.119155 -0.011123
v 0.780857 1.119155 0.144307
v 0.735520 1.119155 0.293763
v 0.661897 1.119155 0.431503
v 0.562816 1.119155 0.552233
v 0.442086 1.119155 0.651314
v 0.304346 1.119155 0.724937
v 0.154889 1.119155 0.770274
v -0.000540 1.119155 0.785583
v -0.155970 1.119155 0.770274
v -0.305426 1.119155 0.724937
v -0.443166 1.119155 0.651313
v -0.563896 1.119155 0.552232
v -0.662977 1.119155 0.431503
v -0.736600 1.119155 0.293763
v -0.781937 1.119155 0.144306
v -0.797245 1.119155 -0.011124
v -0.781937 1.119155 -0.166553
v -0.736599 1.119155 -0.316009
v -0.662976 1.119155 -0.453749
v -0.563895 1.119155 -0.574479
v -0.443165 1.119155 -0.673560
v -0.305425 1.119155 -0.747183
v -0.155968 1.119155 -0.792520
v -0.000540 1.183004 -0.881955
v 0.169351 1.183004 -0.865222
v 0.332713 1.183004 -0.815667
v 0.483268 1.183004 -0.735193
v 0.615231 1.183004 -0.626894
v 0.723531 1.183004 -0.494931
v 0.804004 1.183004 -0.344376
v 0.853559 1.183004 -0.181014
v 0.870292 1.183004 -0.011123
v 0.853559 1.183004 0.158768
v 0.804004 1.183004 0.322130
v 0.723531 1.183004 0.472686
v 0.615231 1.183004 0.604649
v 0.483268 1.183004 0.712948
v 0.332713 1.183004 0.793421
v 0.169351 1.183004 0.842976
v -0.000540 1.183004 0.859709
v -0.170431 1.183004 0.842976
v -0.333793 1.183004 0.793421
v -0.484349 1.183004 0.712947
v -0.616311 1.183004 0.604648
v -0.724610 1.183004 0.472685
v -0.805084 1.183004 0.322130
v -0.854639 1.183004 0.158767
v -0.871372 1.183004 -0.011124
v -0.854639 1.183004 -0.181015
v -0.805083 1.183004 -0.344376
v -0.724610 1.183004 -0.494932
v -0.616310 1.183004 -0.626894
v -0.484347 1.183004 -0.735194
v -0.333791 1.183004 -0.815667
v -0.170429 1.183004 -0.865222
v -0.000540 1.298066 -0.728151
v 0.139346 1.298066 -0.714374
v 0.273855 1.298066 -0.673571
v 0.397820 1.298066 -0.607310
v 0.506476 1.298066 -0.518138
v 0.595648 1.298066 -0.409482
v 0.661908 1.298066 -0.285518
v 0.702711 1.298066 -0.151008
v 0.716489 1.298066 -0.011123
v 0.702711 1.298066 0.128763
v 0.661908 1.298066 0.263272
v 0.595648 1.298066 0.387237
v 0.506476 1.298066 0.495893
v 0.397820 1.298066 0.585065
v 0.273855 1.298066 0.651325
v 0.139345 1.298066 0.692128
v -0.000540 1.298066 0.705906
v -0.140425 1.298066 0.692128
v -0.274935 1.298066 0.651325
v -0.398900 1.298066 0.585064
v -0.507556 1.298066 0.495892
v -0.596727 1.298066 0.387237
v -0.662988 1.298066 0.263272
v -0.703791 1.298066 0.128761
v -0.717568 1.298066 -0.011124
v -0.703791 1.298066 -0.151009
v -0.662987 1.298066 -0.285518
v -0.596727 1.298066 -0.409483
v -0.507555 1.298066 -0.518139
v -0.398899 1.298066 -0.607311
v -0.274934 1.298066 -0.673571
v -0.140424 1.298066 -0.714374
vn 0.6344 0.0000 -0.7730
vn -0.0980 0.0000 0.9952
vn 0.8819 0.0000 0.4714
vn 0.2604 -0.4418 0.8585
vn -0.9952 0.0000 0.0980
vn 0.7730 0.0000 -0.6344
vn 0.7730 0.0000 0.6344
vn 0.0980 0.0000 0.9952
vn 0.9952 0.0000 0.0980
vn -0.2903 0.0000 0.9569
vn -0.2903 0.0000 -0.9569
vn 0.8819 0.0000 -0.4714
vn 0.6344 0.0000 0.7730
vn -0.9952 0.0000 -0.0980
vn -0.4714 0.0000 0.8819
vn -0.0980 0.0000 -0.9952
vn 0.9569 0.0000 -0.2903
vn 0.4714 0.0000 0.8819
vn -0.9569 0.0000 -0.2903
vn -0.6344 0.0000 0.7730
vn 0.0980 0.0000 -0.9952
vn 0.9952 0.0000 -0.0980
vn 0.2903 0.0000 0.9569
vn -0.8819 0.0000 -0.4714
vn -0.7730 0.0000 0.6344
vn 0.2903 0.0000 -0.9569
vn -0.7730 0.0000 -0.6344
vn -0.8819 0.0000 0.4714
vn 0.4714 0.0000 -0.8819
vn 0.9569 0.0000 0.2903
vn -0.6344 0.0000 -0.7730
vn -0.9569 0.0000 0.2903
vn 0.0000 1.0000 0.0000
vn -0.4714 0.0000 -0.8819
vn 0.4374 0.3730 -0.8183
vn 0.0879 -0.4418 -0.8928
vn 0.8928 -0.4418 -0.0879
vn -0.8585 -0.4418 -0.2604
vn -0.4229 -0.4418 0.7912
vn 0.8585 -0.4418 -0.2604
vn 0.4229 -0.4418 0.7912
vn -0.0879 -0.4418 -0.8928
vn -0.8928 -0.4418 -0.0879
vn -0.2604 -0.4418 0.8585
vn 0.7912 -0.4418 -0.4229
vn 0.5691 -0.4418 0.6935
vn -0.2604 -0.4418 -0.8585
vn -0.8928 -0.4418 0.0879
vn -0.0879 -0.4418 0.8928
vn 0.6935 -0.4418 -0.5691
vn 0.6935 -0.4418 0.5691
vn -0.4229 -0.4418 -0.7912
vn -0.8585 -0.4418 0.2604
vn 0.5691 -0.4418 -0.6935
vn 0.7912 -0.4418 0.4229
vn -0.5691 -0.4418 -0.6935
vn -0.7912 -0.4418 0.4229
vn 0.4229 -0.4418 -0.7912
vn 0.8585 -0.4418 0.2604
vn -0.6935 -0.4418 -0.5691
vn -0.6935 -0.4418 0.5691
vn 0.2604 -0.4418 -0.8585
vn 0.8928 -0.4418 0.0879
vn -0.7912 -0.4418 -0.4229
vn 0.0879 -0.4418 0.8928
vn -0.5691 -0.4418 0.6935
vn -0.0821 -0.5470 -0.8331
vn 0.0909 0.3730 0.9234
vn -0.7172 0.3730 0.5886
vn 0.2693 0.3730 -0.8879
vn 0.2693 0.3730 0.8879
vn -0.5886 0.3730 0.7172
vn 0.0909 0.3730 -0.9234
vn 0.4374 0.3730 0.8183
vn -0.4374 0.3730 0.8183
vn -0.0909 0.3730 -0.9234
vn 0.5886 0.3730 0.7172
vn -0.2693 0.3730 0.8879
vn -0.2693 0.3730 -0.8879
vn 0.7172 0.3730 0.5886
vn -0.0909 0.3730 0.9234
vn -0.4374 0.3730 -0.8183
vn 0.8183 0.3730 0.4374
vn -0.5886 0.3730 -0.7172
vn 0.8879 0.3730 0.2693
vn -0.7172 0.3730 -0.5886
vn 0.9234 0.3730 0.0909
vn -0.8183 0.3730 -0.4374
vn 0.9234 0.3730 -0.0909
vn -0.8879 0.3730 -0.2693
vn 0.8879 0.3730 -0.2693
vn -0.9234 0.3730 -0.0909
vn 0.8183 0.3730 -0.4374
vn -0.9234 0.3730 0.0909
vn 0.7172 0.3730 -0.5886
vn -0.8879 0.3730 0.2693
vn 0.5886 0.3730 -0.7172
vn -0.8183 0.3730 0.4374
vn 0.5311 -0.5470 0.6471
vn -0.2430 -0.5470 0.8011
vn -0.2430 -0.5470 -0.8011
vn 0.6471 -0.5470 0.5311
vn -0.0820 -0.5470 0.8331
vn -0.3946 -0.5470 -0.7383
vn 0.7383 -0.5470 0.3946
vn -0.5311 -0.5470 -0.6471
vn 0.8011 -0.5470 0.2430
vn -0.6471 -0.5470 -0.5311
vn 0.8331 -0.5470 0.0821
vn -0.7383 -0.5470 -0.3946
vn 0.8331 -0.5470 -0.0821
vn -0.8011 -0.5470 -0.2430
vn 0.8011 -0.5470 -0.2430
vn -0.8331 -0.5470 -0.0821
vn 0.7383 -0.5470 -0.3946
vn -0.8331 -0.5470 0.0821
vn 0.6471 -0.5470 -0.5311
vn -0.8011 -0.5470 0.2430
vn 0.5311 -0.5470 -0.6471
vn -0.7383 -0.5470 0.3946
vn 0.3946 -0.5470 -0.7383
vn 0.0821 -0.5470 0.8331
vn -0.6471 -0.5470 0.5311
vn 0.2430 -0.5470 -0.8011
vn 0.2430 -0.5470 0.8011
vn -0.5311 -0.5470 0.6471
vn 0.0821 -0.5470 -0.8331
vn 0.3946 -0.5470 0.7383
vn -0.3946 -0.5470 0.7383
vn -0.6263 0.7561 -0.1900
vn -0.5750 -0.7993 0.1744
vn 0.6263 0.7561 -0.1900
vn -0.6513 0.7561 -0.0641
vn 0.5772 0.7561 -0.3085
vn -0.6513 0.7561 0.0641
vn 0.5059 0.7561 -0.4152
vn -0.6263 0.7561 0.1900
vn 0.4152 0.7561 -0.5059
vn -0.5772 0.7561 0.3085
vn 0.3085 0.7561 -0.5772
vn 0.0641 0.7561 0.6513
vn -0.5059 0.7561 0.4152
vn 0.1900 0.7561 -0.6263
vn 0.1900 0.7561 0.6263
vn -0.4152 0.7561 0.5059
vn 0.0641 0.7561 -0.6513
vn 0.3085 0.7561 0.5772
vn -0.3085 0.7561 0.5772
vn -0.0641 0.7561 -0.6513
vn 0.4152 0.7561 0.5059
vn -0.1900 0.7561 0.6263
vn -0.1900 0.7561 -0.6263
vn 0.5059 0.7561 0.4152
vn -0.0641 0.7561 0.6513
vn -0.3085 0.7561 -0.5772
vn 0.5772 0.7561 0.3085
vn -0.4152 0.7561 -0.5059
vn 0.6263 0.7561 0.1900
vn -0.5059 0.7561 -0.4152
vn 0.6513 0.7561 0.0641
vn -0.5772 0.7561 -0.3085
vn 0.6513 0.7561 -0.0641
vn 0.0000 -1.0000 0.0000
vn 0.3812 -0.7993 -0.4645
vn -0.5299 -0.7993 0.2833
vn 0.2833 -0.7993 -0.5299
vn 0.0589 -0.7993 0.5980
vn -0.4645 -0.7993 0.3812
vn 0.1744 -0.7993 -0.5750
vn 0.1744 -0.7993 0.5750
vn -0.3812 -0.7993 0.4645
vn 0.0589 -0.7993 -0.5980
vn 0.2833 -0.7993 0.5299
vn -0.2833 -0.7993 0.5299
vn -0.0589 -0.7993 -0.5980
vn 0.3812 -0.7993 0.4645
vn -0.1744 -0.7993 0.5750
vn -0.1744 -0.7993 -0.5750
vn 0.4645 -0.7993 0.3812
vn -0.0589 -0.7993 0.5980
vn -0.2833 -0.7993 -0.5299
vn 0.5299 -0.7993 0.2833
vn -0.3812 -0.7993 -0.4645
vn 0.5750 -0.7993 0.1744
vn -0.4645 -0.7993 -0.3812
vn 0.5980 -0.7993 0.0589
vn -0.5299 -0.7993 -0.2833
vn 0.5980 -0.7993 -0.0589
vn -0.5750 -0.7993 -0.1744
vn 0.5750 -0.7993 -0.1744
vn -0.5980 -0.7993 -0.0589
vn 0.5299 -0.7993 -0.2833
vn -0.5980 -0.7993 0.0589
vn 0.4645 -0.7993 -0.3812
usemtl None
s off
f 21//1 22//1 53//1 52//1
f 1//2 2//2 34//2 10//2
f 28//3 29//3 60//3 59//3
f 63//4 64//4 96//4 95//4
f 8//5 9//5 41//5 40//5
f 22//6 23//6 54//6 53//6
f 29//7 30//7 61//7 60//7
f 33//8 1//8 10//8 64//8
f 26//9 27//9 58//9 57//9
f 2//10 3//10 35//10 34//10
f 16//11 17//11 48//11 47//11
f 23//12 24//12 55//12 54//12
f 30//13 31//13 62//13 61//13
f 9//14 11//14 42//14 41//14
f 3//15 4//15 36//15 35//15
f 17//16 18//16 49//16 48//16
f 24//17 25//17 56//17 55//17
f 31//18 32//18 63//18 62//18
f 11//19 12//19 43//19 42//19
f 4//20 5//20 37//20 36//20
f 18//21 19//21 50//21 49//21
f 25//22 26//22 57//22 56//22
f 32//23 33//23 64//23 63//23
f 12//24 13//24 44//24 43//24
f 5//25 6//25 38//25 37//25
f 19//26 20//26 51//26 50//26
f 13//27 14//27 45//27 44//27
f 6//28 7//28 39//28 38//28
f 20//29 21//29 52//29 51//29
f 27//30 28//30 59//30 58//30
f 14//31 15//31 46//31 45//31
f 7//32 8//32 40//32 39//32
f 1//33 33//33 32//33 31//33 30//33 29//33 28//33 27//33 26//33 25//33 24//33 23//33 22//33 21//33 20//33 19//33 18//33 17//33 16//33 15//33 14//33 13//33 12//33 11//33 9//33 8//33 7//33 6//33 5//33 4//33 3//33 2//33
f 15//34 16//34 47//34 46//34
f 83//35 84//35 116//35 115//35
f 49//36 50//36 82//36 81//36
f 56//37 57//37 89//37 88//37
f 42//38 43//38 75//38 74//38
f 35//39 36//39 68//39 67//39
f 55//40 56//40 88//40 87//40
f 62//41 63//41 95//41 94//41
f 48//42 49//42 81//42 80//42
f 41//43 42//43 74//43 73//43
f 34//44 35//44 67//44 66//44
f 54//45 55//45 87//45 86//45
f 61//46 62//46 94//46 93//46
f 47//47 48//47 80//47 79//47
f 40//48 41//48 73//48 72//48
f 10//49 34//49 66//49 65//49
f 53//50 54//50 86//50 85//50
f 60//51 61//51 93//51 92//51
f 46//52 47//52 79//52 78//52
f 39//53 40//53 72//53 71//53
f 52//54 53//54 85//54 84//54
f 59//55 60//55 92//55 91//55
f 45//56 46//56 78//56 77//56
f 38//57 39//57 71//57 70//57
f 51//58 52//58 84//58 83//58
f 58//59 59//59 91//59 90//59
f 44//60 45//60 77//60 76//60
f 37//61 38//61 70//61 69//61
f 50//62 51//62 83//62 82//62
f 57//63 58//63 90//63 89//63
f 43//64 44//64 76//64 75//64
f 64//65 10//65 65//65 96//65
f 36//66 37//66 69//66 68//66
f 112//67 113//67 145//67 144//67
f 96//68 65//68 97//68 128//68
f 69//69 70//69 102//69 101//69
f 82//70 83//70 115//70 114//70
f 95//71 96//71 128//71 127//71
f 68//72 69//72 101//72 100//72
f 81//73 82//73 114//73 113//73
f 94//74 95//74 127//74 126//74
f 67//75 68//75 100//75 99//75
f 80//76 81//76 113//76 112//76
f 93//77 94//77 126//77 125//77
f 66//78 67//78 99//78 98//78
f 79//79 80//79 112//79 111//79
f 92//80 93//80 125//80 124//80
f 65//81 66//81 98//81 97//81
f 78//82 79//82 111//82 110//82
f 91//83 92//83 124//83 123//83
f 77//84 78//84 110//84 109//84
f 90//85 91//85 123//85 122//85
f 76//86 77//86 109//86 108//86
f 89//87 90//87 122//87 121//87
f 75//88 76//88 108//88 107//88
f 88//89 89//89 121//89 120//89
f 74//90 75//90 107//90 106//90
f 87//91 88//91 120//91 119//91
f 73//92 74//92 106//92 105//92
f 86//93 87//93 119//93 118//93
f 72//94 73//94 105//94 104//94
f 85//95 86//95 118//95 117//95
f 71//96 72//96 104//96 103//96
f 84//97 85//97 117//97 116//97
f 70//98 71//98 103//98 102//98
f 141//31 142//31 174//31 173//31
f 125//99 126//99 158//99 157//99
f 98//100 99//100 131//100 130//100
f 111//101 112//101 144//101 143//101
f 124//102 125//102 157//102 156//102
f 97//103 98//103 130//103 129//103
f 110//104 111//104 143//104 142//104
f 123//105 124//105 156//105 155//105
f 109//106 110//106 142//106 141//106
f 122//107 123//107 155//107 154//107
f 108//108 109//108 141//108 140//108
f 121//109 122//109 154//109 153//109
f 107//110 108//110 140//110 139//110
f 120//111 121//111 153//111 152//111
f 106//112 107//112 139//112 138//112
f 119//113 120//113 152//113 151//113
f 105//114 106//114 138//114 137//114
f 118//115 119//115 151//115 150//115
f 104//116 105//116 137//116 136//116
f 117//117 118//117 150//117 149//117
f 103//118 104//118 136//118 135//118
f 116//119 117//119 149//119 148//119
f 102//120 103//120 135//120 134//120
f 115//121 116//121 148//121 147//121
f 128//122 97//122 129//122 160//122
f 101//123 102//123 134//123 133//123
f 114//124 115//124 147//124 146//124
f 127//125 128//125 160//125 159//125
f 100//126 101//126 133//126 132//126
f 113//127 114//127 146//127 145//127
f 126//128 127//128 159//128 158//128
f 99//129 100//129 132//129 131//129
f 170//130 171//130 203//130 202//130
f 154//30 155//30 187//30 186//30
f 140//27 141//27 173//27 172//27
f 153//9 154//9 186//9 185//9
f 139//24 140//24 172//24 171//24
f 152//22 153//22 185//22 184//22
f 138//19 139//19 171//19 170//19
f 151//17 152//17 184//17 183//17
f 137//14 138//14 170//14 169//14
f 150//12 151//12 183//12 182//12
f 136//5 137//5 169//5 168//5
f 149//6 150//6 182//6 181//6
f 135//32 136//32 168//32 167//32
f 148//1 149//1 181//1 180//1
f 134//28 135//28 167//28 166//28
f 147//29 148//29 180//29 179//29
f 160//8 129//8 161//8 192//8
f 133//25 134//25 166//25 165//25
f 146//26 147//26 179//26 178//26
f 159//23 160//23 192//23 191//23
f 132//20 133//20 165//20 164//20
f 145//21 146//21 178//21 177//21
f 158//18 159//18 191//18 190//18
f 131//15 132//15 164//15 163//15
f 144//16 145//16 177//16 176//16
f 157//13 158//13 190//13 189//13
f 130//10 131//10 163//10 162//10
f 143//11 144//11 176//11 175//11
f 156//7 157//7 189//7 188//7
f 129//2 130//2 162//2 161//2
f 142//34 143//34 175//34 174//34
f 155//3 156//3 188//3 187//3
f 199//131 200//131 232//131 231//131
f 183//132 184//132 216//132 215//132
f 169//133 170//133 202//133 201//133
f 182//134 183//134 215//134 214//134
f 168//135 169//135 201//135 200//135
f 181//136 182//136 214//136 213//136
f 167//137 168//137 200//137 199//137
f 180//138 181//138 213//138 212//138
f 166//139 167//139 199//139 198//139
f 179//140 180//140 212//140 211//140
f 192//141 161//141 193//141 224//141
f 165//142 166//142 198//142 197//142
f 178//143 179//143 211//143 210//143
f 191//144 192//144 224//144 223//144
f 164//145 165//145 197//145 196//145
f 177//146 178//146 210//146 209//146
f 190//147 191//147 223//147 222//147
f 163//148 164//148 196//148 195//148
f 176//149 177//149 209//149 208//149
f 189//150 190//150 222//150 221//150
f 162//151 163//151 195//151 194//151
f 175//152 176//152 208//152 207//152
f 188//153 189//153 221//153 220//153
f 161//154 162//154 194//154 193//154
f 174//155 175//155 207//155 206//155
f 187//156 188//156 220//156 219//156
f 173//157 174//157 206//157 205//157
f 186//158 187//158 219//158 218//158
f 172//159 173//159 205//159 204//159
f 185//160 186//160 218//160 217//160
f 171//161 172//161 204//161 203//161
f 184//162 185//162 217//162 216//162
f 225//163 226//163 227//163 228//163 229//163 230//163 231//163 232//163 233//163 234//163 235//163 236//163 237//163 238//163 239//163 240//163 241//163 242//163 243//163 244//163 245//163 246//163 247//163 248//163 249//163 250//163 251//163 252//163 253//163 254//163 255//163 256//163
f 212//164 213//164 245//164 244//164
f 198//165 199//165 231//165 230//165
f 211//166 212//166 244//166 243//166
f 224//167 193//167 225//167 256//167
f 197//168 198//168 230//168 229//168
f 210//169 211//169 243//169 242//169
f 223//170 224//170 256//170 255//170
f 196//171 197//171 229//171 228//171
f 209//172 210//172 242//172 241//172
f 222//173 223//173 255//173 254//173
f 195//174 196//174 228//174 227//174
f 208//175 209//175 241//175 240//175
f 221//176 222//176 254//176 253//176
f 194//177 195//177 227//177 226//177
f 207//178 208//178 240//178 239//178
f 220//179 221//179 253//179 252//179
f 193//180 194//180 226//180 225//180
f 206//181 207//181 239//181 238//181
f 219//182 220//182 252//182 251//182
f 205//183 206//183 238//183 237//183
f 218//184 219//184 251//184 250//184
f 204//185 205//185 237//185 236//185
f 217//186 218//186 250//186 249//186
f 203//187 204//187 236//187 235//187
f 216//188 217//188 249//188 248//188
f 202//189 203//189 235//189 234//189
f 215//190 216//190 248//190 247//190
f 201//191 202//191 234//191 233//191
f 214//192 215//192 247//192 246//192
f 200//193 201//193 233//193 232//193
f 213//194 214//194 246//194 245//194
